# xmcd CD database file
#
# Track frame offsets:
#	150
#	13239
#	27736
#	51637
#	66514
#	84423
#	97251
#	110839
#	123013
#	138642
#	151724
#
# Disc length: 2288 seconds
#
# Revision: 0
# Processed by: cddbd v1.5.2PL0 Copyright (c) Steve Scherf et al.
# Submitted via: CDex 1.77
#
DISCID=a208ee0b
DTITLE=Mattanja Joy Bradley - Wake Me Up
DYEAR=2013
DGENRE=Blues
TTITLE0=Beautiful Imperfections
TTITLE1=Hurricane
TTITLE2=Lie In Your Love
TTITLE3=Keep on Rollin'
TTITLE4=Hurts To Get To Heaven
TTITLE5=Wash Me Momma
TTITLE6=Wake Me Up
TTITLE7=Ready for You
TTITLE8=Two Arms and a Heartbeat
TTITLE9=Meet the Eye
TTITLE10=Sucker for Love (LIVE @ G!EL)
EXTD=YEAR: 2013
EXTT0=
EXTT1=
EXTT2=
EXTT3=
EXTT4=
EXTT5=
EXTT6=
EXTT7=
EXTT8=
EXTT9=
EXTT10=
PLAYORDER=
